<mxfile host="app.diagrams.net" modified="2024-01-14T09:58:10.328Z" agent="Mozilla/5.0 (Macintosh; Intel Mac OS X 10_15_7) AppleWebKit/537.36 (KHTML, like Gecko) Chrome/120.0.0.0 Safari/537.36" etag="LbB8OeVA1hpCoF59UISX" version="22.1.18" type="device">
  <diagram id="R2lEEEUBdFMjLlhIrx00" name="Page-1">
    <mxGraphModel dx="1990" dy="1275" grid="1" gridSize="10" guides="1" tooltips="1" connect="1" arrows="1" fold="1" page="1" pageScale="1" pageWidth="850" pageHeight="1100" math="0" shadow="0" extFonts="Permanent Marker^https://fonts.googleapis.com/css?family=Permanent+Marker">
      <root>
        <mxCell id="0" />
        <mxCell id="1" parent="0" />
        <mxCell id="fFsPRnBUjpu_zI0DjNua-66" style="edgeStyle=orthogonalEdgeStyle;rounded=0;orthogonalLoop=1;jettySize=auto;html=1;exitX=0.5;exitY=1;exitDx=0;exitDy=0;endArrow=none;endFill=0;" edge="1" parent="1" source="fFsPRnBUjpu_zI0DjNua-64" target="wQAEA-TahNq1iuPiX8w6-12">
          <mxGeometry relative="1" as="geometry" />
        </mxCell>
        <mxCell id="fFsPRnBUjpu_zI0DjNua-64" value="artwork_id" style="ellipse;whiteSpace=wrap;html=1;align=center;fillColor=#b1ddf0;strokeColor=#10739e;fontFamily=Arial;" vertex="1" parent="1">
          <mxGeometry x="540" y="285" width="80" height="30" as="geometry" />
        </mxCell>
        <mxCell id="wQAEA-TahNq1iuPiX8w6-10" value="artist" style="whiteSpace=wrap;html=1;align=center;fillColor=#1ba1e2;strokeColor=#006EAF;fontFamily=Arial;fontColor=#ffffff;" parent="1" vertex="1">
          <mxGeometry x="80" y="455" width="100" height="40" as="geometry" />
        </mxCell>
        <mxCell id="fFsPRnBUjpu_zI0DjNua-52" style="edgeStyle=orthogonalEdgeStyle;rounded=0;orthogonalLoop=1;jettySize=auto;html=1;exitX=0;exitY=0.5;exitDx=0;exitDy=0;entryX=1;entryY=0.75;entryDx=0;entryDy=0;endArrow=ERmandOne;endFill=0;" edge="1" parent="1" source="wQAEA-TahNq1iuPiX8w6-11" target="wQAEA-TahNq1iuPiX8w6-10">
          <mxGeometry relative="1" as="geometry" />
        </mxCell>
        <mxCell id="fFsPRnBUjpu_zI0DjNua-53" style="edgeStyle=orthogonalEdgeStyle;rounded=0;orthogonalLoop=1;jettySize=auto;html=1;exitX=1;exitY=0.5;exitDx=0;exitDy=0;entryX=0;entryY=0.5;entryDx=0;entryDy=0;endArrow=ERzeroToMany;endFill=0;" edge="1" parent="1" source="wQAEA-TahNq1iuPiX8w6-11" target="wQAEA-TahNq1iuPiX8w6-12">
          <mxGeometry relative="1" as="geometry" />
        </mxCell>
        <mxCell id="wQAEA-TahNq1iuPiX8w6-11" value="have" style="shape=rhombus;perimeter=rhombusPerimeter;whiteSpace=wrap;html=1;align=center;fillColor=#b0e3e6;strokeColor=#0e8088;fontFamily=Arial;" parent="1" vertex="1">
          <mxGeometry x="335" y="595" width="90" height="50" as="geometry" />
        </mxCell>
        <mxCell id="wQAEA-TahNq1iuPiX8w6-12" value="artwork" style="whiteSpace=wrap;html=1;align=center;fillColor=#1ba1e2;strokeColor=#006EAF;fontFamily=Arial;fontColor=#ffffff;" parent="1" vertex="1">
          <mxGeometry x="530" y="600" width="100" height="40" as="geometry" />
        </mxCell>
        <mxCell id="fFsPRnBUjpu_zI0DjNua-75" style="edgeStyle=orthogonalEdgeStyle;rounded=0;orthogonalLoop=1;jettySize=auto;html=1;exitX=0.5;exitY=0;exitDx=0;exitDy=0;entryX=0;entryY=0.5;entryDx=0;entryDy=0;endArrow=ERmandOne;endFill=0;" edge="1" parent="1" source="wQAEA-TahNq1iuPiX8w6-15" target="wQAEA-TahNq1iuPiX8w6-10">
          <mxGeometry relative="1" as="geometry" />
        </mxCell>
        <mxCell id="fFsPRnBUjpu_zI0DjNua-76" style="edgeStyle=orthogonalEdgeStyle;rounded=0;orthogonalLoop=1;jettySize=auto;html=1;exitX=0.5;exitY=1;exitDx=0;exitDy=0;entryX=0;entryY=0.5;entryDx=0;entryDy=0;endArrow=ERzeroToMany;endFill=0;" edge="1" parent="1" source="wQAEA-TahNq1iuPiX8w6-15" target="wQAEA-TahNq1iuPiX8w6-124">
          <mxGeometry relative="1" as="geometry" />
        </mxCell>
        <mxCell id="wQAEA-TahNq1iuPiX8w6-15" value="have" style="shape=rhombus;perimeter=rhombusPerimeter;whiteSpace=wrap;html=1;align=center;fillColor=#b0e3e6;strokeColor=#0e8088;fontFamily=Arial;" parent="1" vertex="1">
          <mxGeometry x="60" y="575" width="90" height="50" as="geometry" />
        </mxCell>
        <mxCell id="wQAEA-TahNq1iuPiX8w6-16" value="follower" style="whiteSpace=wrap;html=1;align=center;fillColor=#1ba1e2;strokeColor=#006EAF;fontFamily=Arial;fontColor=#ffffff;" parent="1" vertex="1">
          <mxGeometry x="278" y="680" width="100" height="40" as="geometry" />
        </mxCell>
        <mxCell id="fFsPRnBUjpu_zI0DjNua-55" style="edgeStyle=orthogonalEdgeStyle;rounded=0;orthogonalLoop=1;jettySize=auto;html=1;exitX=0;exitY=0.5;exitDx=0;exitDy=0;entryX=1;entryY=0.75;entryDx=0;entryDy=0;endArrow=ERmandOne;endFill=0;" edge="1" parent="1" source="wQAEA-TahNq1iuPiX8w6-21" target="wQAEA-TahNq1iuPiX8w6-12">
          <mxGeometry relative="1" as="geometry" />
        </mxCell>
        <mxCell id="fFsPRnBUjpu_zI0DjNua-57" style="edgeStyle=orthogonalEdgeStyle;rounded=0;orthogonalLoop=1;jettySize=auto;html=1;exitX=0.5;exitY=1;exitDx=0;exitDy=0;entryX=0.5;entryY=0;entryDx=0;entryDy=0;endArrow=ERzeroToMany;endFill=0;" edge="1" parent="1" source="wQAEA-TahNq1iuPiX8w6-21" target="wQAEA-TahNq1iuPiX8w6-22">
          <mxGeometry relative="1" as="geometry" />
        </mxCell>
        <mxCell id="wQAEA-TahNq1iuPiX8w6-21" value="have" style="shape=rhombus;perimeter=rhombusPerimeter;whiteSpace=wrap;html=1;align=center;fillColor=#b0e3e6;strokeColor=#0e8088;fontFamily=Arial;" parent="1" vertex="1">
          <mxGeometry x="580" y="700" width="90" height="50" as="geometry" />
        </mxCell>
        <mxCell id="wQAEA-TahNq1iuPiX8w6-22" value="comment" style="whiteSpace=wrap;html=1;align=center;fillColor=#1ba1e2;strokeColor=#006EAF;fontFamily=Arial;fontColor=#ffffff;" parent="1" vertex="1">
          <mxGeometry x="620" y="805" width="100" height="40" as="geometry" />
        </mxCell>
        <mxCell id="fFsPRnBUjpu_zI0DjNua-22" style="edgeStyle=orthogonalEdgeStyle;rounded=0;orthogonalLoop=1;jettySize=auto;html=1;exitX=1;exitY=0.5;exitDx=0;exitDy=0;entryX=0.5;entryY=0;entryDx=0;entryDy=0;endArrow=none;endFill=0;" edge="1" parent="1" source="wQAEA-TahNq1iuPiX8w6-26" target="wQAEA-TahNq1iuPiX8w6-10">
          <mxGeometry relative="1" as="geometry" />
        </mxCell>
        <mxCell id="wQAEA-TahNq1iuPiX8w6-26" value="artist_id" style="ellipse;whiteSpace=wrap;html=1;align=center;fillColor=#b1ddf0;strokeColor=#10739e;fontFamily=Arial;" parent="1" vertex="1">
          <mxGeometry x="30" y="85" width="80" height="30" as="geometry" />
        </mxCell>
        <mxCell id="fFsPRnBUjpu_zI0DjNua-24" style="edgeStyle=orthogonalEdgeStyle;rounded=0;orthogonalLoop=1;jettySize=auto;html=1;exitX=1;exitY=0.5;exitDx=0;exitDy=0;entryX=0.5;entryY=0;entryDx=0;entryDy=0;endArrow=none;endFill=0;" edge="1" parent="1" source="wQAEA-TahNq1iuPiX8w6-27" target="wQAEA-TahNq1iuPiX8w6-10">
          <mxGeometry relative="1" as="geometry" />
        </mxCell>
        <mxCell id="wQAEA-TahNq1iuPiX8w6-27" value="username" style="ellipse;whiteSpace=wrap;html=1;align=center;fillColor=#b1ddf0;strokeColor=#10739e;fontFamily=Arial;" parent="1" vertex="1">
          <mxGeometry x="30" y="125" width="80" height="30" as="geometry" />
        </mxCell>
        <mxCell id="fFsPRnBUjpu_zI0DjNua-26" style="edgeStyle=orthogonalEdgeStyle;rounded=0;orthogonalLoop=1;jettySize=auto;html=1;exitX=1;exitY=0.5;exitDx=0;exitDy=0;entryX=0.5;entryY=0;entryDx=0;entryDy=0;endArrow=none;endFill=0;" edge="1" parent="1" source="wQAEA-TahNq1iuPiX8w6-28" target="wQAEA-TahNq1iuPiX8w6-10">
          <mxGeometry relative="1" as="geometry" />
        </mxCell>
        <mxCell id="wQAEA-TahNq1iuPiX8w6-28" value="firstname" style="ellipse;whiteSpace=wrap;html=1;align=center;fillColor=#b1ddf0;strokeColor=#10739e;fontFamily=Arial;" parent="1" vertex="1">
          <mxGeometry x="30" y="205" width="80" height="30" as="geometry" />
        </mxCell>
        <mxCell id="fFsPRnBUjpu_zI0DjNua-27" style="edgeStyle=orthogonalEdgeStyle;rounded=0;orthogonalLoop=1;jettySize=auto;html=1;exitX=1;exitY=0.5;exitDx=0;exitDy=0;entryX=0.5;entryY=0;entryDx=0;entryDy=0;endArrow=none;endFill=0;" edge="1" parent="1" source="wQAEA-TahNq1iuPiX8w6-29" target="wQAEA-TahNq1iuPiX8w6-10">
          <mxGeometry relative="1" as="geometry" />
        </mxCell>
        <mxCell id="wQAEA-TahNq1iuPiX8w6-29" value="middlename" style="ellipse;whiteSpace=wrap;html=1;align=center;fillColor=#b1ddf0;strokeColor=#10739e;fontFamily=Arial;" parent="1" vertex="1">
          <mxGeometry x="30" y="245" width="80" height="30" as="geometry" />
        </mxCell>
        <mxCell id="fFsPRnBUjpu_zI0DjNua-28" style="edgeStyle=orthogonalEdgeStyle;rounded=0;orthogonalLoop=1;jettySize=auto;html=1;exitX=1;exitY=0.5;exitDx=0;exitDy=0;entryX=0.5;entryY=0;entryDx=0;entryDy=0;endArrow=none;endFill=0;" edge="1" parent="1" source="wQAEA-TahNq1iuPiX8w6-30" target="wQAEA-TahNq1iuPiX8w6-10">
          <mxGeometry relative="1" as="geometry" />
        </mxCell>
        <mxCell id="wQAEA-TahNq1iuPiX8w6-30" value="lastname" style="ellipse;whiteSpace=wrap;html=1;align=center;fillColor=#b1ddf0;strokeColor=#10739e;fontFamily=Arial;" parent="1" vertex="1">
          <mxGeometry x="30" y="285" width="80" height="30" as="geometry" />
        </mxCell>
        <mxCell id="fFsPRnBUjpu_zI0DjNua-29" style="edgeStyle=orthogonalEdgeStyle;rounded=0;orthogonalLoop=1;jettySize=auto;html=1;exitX=1;exitY=0.5;exitDx=0;exitDy=0;entryX=0.5;entryY=0;entryDx=0;entryDy=0;endArrow=none;endFill=0;" edge="1" parent="1" source="wQAEA-TahNq1iuPiX8w6-31" target="wQAEA-TahNq1iuPiX8w6-10">
          <mxGeometry relative="1" as="geometry" />
        </mxCell>
        <mxCell id="wQAEA-TahNq1iuPiX8w6-31" value="suffix" style="ellipse;whiteSpace=wrap;html=1;align=center;fillColor=#b1ddf0;strokeColor=#10739e;fontFamily=Arial;" parent="1" vertex="1">
          <mxGeometry x="30" y="325" width="80" height="30" as="geometry" />
        </mxCell>
        <mxCell id="fFsPRnBUjpu_zI0DjNua-25" style="edgeStyle=orthogonalEdgeStyle;rounded=0;orthogonalLoop=1;jettySize=auto;html=1;exitX=1;exitY=0.5;exitDx=0;exitDy=0;entryX=0.5;entryY=0;entryDx=0;entryDy=0;endArrow=none;endFill=0;" edge="1" parent="1" source="wQAEA-TahNq1iuPiX8w6-32" target="wQAEA-TahNq1iuPiX8w6-10">
          <mxGeometry relative="1" as="geometry" />
        </mxCell>
        <mxCell id="wQAEA-TahNq1iuPiX8w6-32" value="email" style="ellipse;whiteSpace=wrap;html=1;align=center;fillColor=#b1ddf0;strokeColor=#10739e;fontFamily=Arial;" parent="1" vertex="1">
          <mxGeometry x="30" y="165" width="80" height="30" as="geometry" />
        </mxCell>
        <mxCell id="fFsPRnBUjpu_zI0DjNua-31" style="edgeStyle=orthogonalEdgeStyle;rounded=0;orthogonalLoop=1;jettySize=auto;html=1;exitX=0;exitY=0.5;exitDx=0;exitDy=0;entryX=0.5;entryY=0;entryDx=0;entryDy=0;endArrow=none;endFill=0;" edge="1" parent="1" source="wQAEA-TahNq1iuPiX8w6-33" target="wQAEA-TahNq1iuPiX8w6-10">
          <mxGeometry relative="1" as="geometry" />
        </mxCell>
        <mxCell id="wQAEA-TahNq1iuPiX8w6-33" value="birthday" style="ellipse;whiteSpace=wrap;html=1;align=center;fillColor=#b1ddf0;strokeColor=#10739e;fontFamily=Arial;" parent="1" vertex="1">
          <mxGeometry x="150" y="105" width="80" height="30" as="geometry" />
        </mxCell>
        <mxCell id="fFsPRnBUjpu_zI0DjNua-35" style="edgeStyle=orthogonalEdgeStyle;rounded=0;orthogonalLoop=1;jettySize=auto;html=1;exitX=0;exitY=0.5;exitDx=0;exitDy=0;entryX=0.5;entryY=0;entryDx=0;entryDy=0;endArrow=none;endFill=0;" edge="1" parent="1" source="wQAEA-TahNq1iuPiX8w6-34" target="wQAEA-TahNq1iuPiX8w6-10">
          <mxGeometry relative="1" as="geometry" />
        </mxCell>
        <mxCell id="wQAEA-TahNq1iuPiX8w6-34" value="acct_type" style="ellipse;whiteSpace=wrap;html=1;align=center;fillColor=#b1ddf0;strokeColor=#10739e;fontFamily=Arial;" parent="1" vertex="1">
          <mxGeometry x="150" y="225" width="80" height="30" as="geometry" />
        </mxCell>
        <mxCell id="fFsPRnBUjpu_zI0DjNua-36" style="edgeStyle=orthogonalEdgeStyle;rounded=0;orthogonalLoop=1;jettySize=auto;html=1;exitX=0;exitY=0.5;exitDx=0;exitDy=0;entryX=0.5;entryY=0;entryDx=0;entryDy=0;endArrow=none;endFill=0;" edge="1" parent="1" source="wQAEA-TahNq1iuPiX8w6-35" target="wQAEA-TahNq1iuPiX8w6-10">
          <mxGeometry relative="1" as="geometry" />
        </mxCell>
        <mxCell id="wQAEA-TahNq1iuPiX8w6-35" value="picture" style="ellipse;whiteSpace=wrap;html=1;align=center;fillColor=#b1ddf0;strokeColor=#10739e;fontFamily=Arial;" parent="1" vertex="1">
          <mxGeometry x="150" y="265" width="80" height="30" as="geometry" />
        </mxCell>
        <mxCell id="fFsPRnBUjpu_zI0DjNua-37" style="edgeStyle=orthogonalEdgeStyle;rounded=0;orthogonalLoop=1;jettySize=auto;html=1;exitX=0;exitY=0.5;exitDx=0;exitDy=0;entryX=0.5;entryY=0;entryDx=0;entryDy=0;endArrow=none;endFill=0;" edge="1" parent="1" source="wQAEA-TahNq1iuPiX8w6-36" target="wQAEA-TahNq1iuPiX8w6-10">
          <mxGeometry relative="1" as="geometry" />
        </mxCell>
        <mxCell id="wQAEA-TahNq1iuPiX8w6-36" value="bio" style="ellipse;whiteSpace=wrap;html=1;align=center;fillColor=#b1ddf0;strokeColor=#10739e;fontFamily=Arial;" parent="1" vertex="1">
          <mxGeometry x="150" y="305" width="80" height="30" as="geometry" />
        </mxCell>
        <mxCell id="fFsPRnBUjpu_zI0DjNua-38" style="edgeStyle=orthogonalEdgeStyle;rounded=0;orthogonalLoop=1;jettySize=auto;html=1;exitX=0;exitY=0.5;exitDx=0;exitDy=0;entryX=0.5;entryY=0;entryDx=0;entryDy=0;endArrow=none;endFill=0;" edge="1" parent="1" source="wQAEA-TahNq1iuPiX8w6-37" target="wQAEA-TahNq1iuPiX8w6-10">
          <mxGeometry relative="1" as="geometry" />
        </mxCell>
        <mxCell id="wQAEA-TahNq1iuPiX8w6-37" value="is_banned" style="ellipse;whiteSpace=wrap;html=1;align=center;fillColor=#b1ddf0;strokeColor=#10739e;fontFamily=Arial;" parent="1" vertex="1">
          <mxGeometry x="150" y="345" width="80" height="30" as="geometry" />
        </mxCell>
        <mxCell id="fFsPRnBUjpu_zI0DjNua-34" style="edgeStyle=orthogonalEdgeStyle;rounded=0;orthogonalLoop=1;jettySize=auto;html=1;exitX=0;exitY=0.5;exitDx=0;exitDy=0;entryX=0.5;entryY=0;entryDx=0;entryDy=0;endArrow=none;endFill=0;" edge="1" parent="1" source="wQAEA-TahNq1iuPiX8w6-38" target="wQAEA-TahNq1iuPiX8w6-10">
          <mxGeometry relative="1" as="geometry" />
        </mxCell>
        <mxCell id="wQAEA-TahNq1iuPiX8w6-38" value="password" style="ellipse;whiteSpace=wrap;html=1;align=center;fillColor=#b1ddf0;strokeColor=#10739e;fontFamily=Arial;" parent="1" vertex="1">
          <mxGeometry x="150" y="185" width="80" height="30" as="geometry" />
        </mxCell>
        <mxCell id="fFsPRnBUjpu_zI0DjNua-32" style="edgeStyle=orthogonalEdgeStyle;rounded=0;orthogonalLoop=1;jettySize=auto;html=1;exitX=0;exitY=0.5;exitDx=0;exitDy=0;entryX=0.5;entryY=0;entryDx=0;entryDy=0;endArrow=none;endFill=0;" edge="1" parent="1" source="wQAEA-TahNq1iuPiX8w6-39" target="wQAEA-TahNq1iuPiX8w6-10">
          <mxGeometry relative="1" as="geometry" />
        </mxCell>
        <mxCell id="wQAEA-TahNq1iuPiX8w6-39" value="phone_no" style="ellipse;whiteSpace=wrap;html=1;align=center;fillColor=#b1ddf0;strokeColor=#10739e;fontFamily=Arial;" parent="1" vertex="1">
          <mxGeometry x="150" y="145" width="80" height="30" as="geometry" />
        </mxCell>
        <mxCell id="fFsPRnBUjpu_zI0DjNua-39" style="edgeStyle=orthogonalEdgeStyle;rounded=0;orthogonalLoop=1;jettySize=auto;html=1;exitX=0;exitY=0.5;exitDx=0;exitDy=0;entryX=0.5;entryY=0;entryDx=0;entryDy=0;endArrow=none;endFill=0;" edge="1" parent="1" source="wQAEA-TahNq1iuPiX8w6-40" target="wQAEA-TahNq1iuPiX8w6-10">
          <mxGeometry relative="1" as="geometry" />
        </mxCell>
        <mxCell id="wQAEA-TahNq1iuPiX8w6-40" value="created_at" style="ellipse;whiteSpace=wrap;html=1;align=center;fillColor=#b1ddf0;strokeColor=#10739e;fontFamily=Arial;" parent="1" vertex="1">
          <mxGeometry x="150" y="385" width="80" height="30" as="geometry" />
        </mxCell>
        <mxCell id="fFsPRnBUjpu_zI0DjNua-30" style="edgeStyle=orthogonalEdgeStyle;rounded=0;orthogonalLoop=1;jettySize=auto;html=1;exitX=1;exitY=0.5;exitDx=0;exitDy=0;entryX=0.5;entryY=0;entryDx=0;entryDy=0;endArrow=none;endFill=0;" edge="1" parent="1" source="wQAEA-TahNq1iuPiX8w6-41" target="wQAEA-TahNq1iuPiX8w6-10">
          <mxGeometry relative="1" as="geometry" />
        </mxCell>
        <mxCell id="wQAEA-TahNq1iuPiX8w6-41" value="adrress" style="ellipse;whiteSpace=wrap;html=1;align=center;fillColor=#b1ddf0;strokeColor=#10739e;fontFamily=Arial;" parent="1" vertex="1">
          <mxGeometry x="30" y="365" width="80" height="30" as="geometry" />
        </mxCell>
        <mxCell id="wQAEA-TahNq1iuPiX8w6-53" style="edgeStyle=none;rounded=0;orthogonalLoop=1;jettySize=auto;html=1;exitX=0;exitY=0.5;exitDx=0;exitDy=0;fillColor=#b1ddf0;strokeColor=#10739e;fontFamily=Arial;" parent="1" source="wQAEA-TahNq1iuPiX8w6-35" target="wQAEA-TahNq1iuPiX8w6-35" edge="1">
          <mxGeometry relative="1" as="geometry" />
        </mxCell>
        <mxCell id="fFsPRnBUjpu_zI0DjNua-40" style="edgeStyle=orthogonalEdgeStyle;rounded=0;orthogonalLoop=1;jettySize=auto;html=1;exitX=0.5;exitY=1;exitDx=0;exitDy=0;endArrow=none;endFill=0;" edge="1" parent="1" source="wQAEA-TahNq1iuPiX8w6-65" target="wQAEA-TahNq1iuPiX8w6-12">
          <mxGeometry relative="1" as="geometry" />
        </mxCell>
        <mxCell id="wQAEA-TahNq1iuPiX8w6-65" value="artist_id" style="ellipse;whiteSpace=wrap;html=1;align=center;fillColor=#b1ddf0;strokeColor=#10739e;fontFamily=Arial;" parent="1" vertex="1">
          <mxGeometry x="540" y="330" width="80" height="30" as="geometry" />
        </mxCell>
        <mxCell id="wQAEA-TahNq1iuPiX8w6-80" value="VIVIDLY" style="whiteSpace=wrap;html=1;align=center;fillColor=#1ba1e2;strokeColor=#006EAF;fontFamily=Arial;fontColor=#ffffff;" parent="1" vertex="1">
          <mxGeometry x="290" y="65" width="100" height="40" as="geometry" />
        </mxCell>
        <mxCell id="fFsPRnBUjpu_zI0DjNua-3" style="edgeStyle=orthogonalEdgeStyle;rounded=0;orthogonalLoop=1;jettySize=auto;html=1;exitX=0.5;exitY=0;exitDx=0;exitDy=0;entryX=1;entryY=0.5;entryDx=0;entryDy=0;endArrow=ERmandOne;endFill=0;" edge="1" parent="1" source="wQAEA-TahNq1iuPiX8w6-81" target="wQAEA-TahNq1iuPiX8w6-80">
          <mxGeometry relative="1" as="geometry" />
        </mxCell>
        <mxCell id="fFsPRnBUjpu_zI0DjNua-4" style="edgeStyle=orthogonalEdgeStyle;rounded=0;orthogonalLoop=1;jettySize=auto;html=1;exitX=1;exitY=0.5;exitDx=0;exitDy=0;entryX=0;entryY=0.5;entryDx=0;entryDy=0;endArrow=ERoneToMany;endFill=0;" edge="1" parent="1" source="wQAEA-TahNq1iuPiX8w6-81" target="hFm1tnAuOlGlKa2ZxBQA-1">
          <mxGeometry relative="1" as="geometry" />
        </mxCell>
        <mxCell id="wQAEA-TahNq1iuPiX8w6-81" value="have" style="shape=rhombus;perimeter=rhombusPerimeter;whiteSpace=wrap;html=1;align=center;fillColor=#b0e3e6;strokeColor=#0e8088;fontFamily=Arial;" parent="1" vertex="1">
          <mxGeometry x="400" y="145" width="90" height="50" as="geometry" />
        </mxCell>
        <mxCell id="fFsPRnBUjpu_zI0DjNua-71" style="edgeStyle=orthogonalEdgeStyle;rounded=0;orthogonalLoop=1;jettySize=auto;html=1;exitX=0.5;exitY=0;exitDx=0;exitDy=0;entryX=0.5;entryY=1;entryDx=0;entryDy=0;endArrow=none;endFill=0;" edge="1" parent="1" target="wQAEA-TahNq1iuPiX8w6-16">
          <mxGeometry relative="1" as="geometry">
            <mxPoint x="328" y="770" as="sourcePoint" />
          </mxGeometry>
        </mxCell>
        <mxCell id="fFsPRnBUjpu_zI0DjNua-72" style="edgeStyle=orthogonalEdgeStyle;rounded=0;orthogonalLoop=1;jettySize=auto;html=1;exitX=0.5;exitY=0;exitDx=0;exitDy=0;entryX=0.5;entryY=1;entryDx=0;entryDy=0;endArrow=none;endFill=0;" edge="1" parent="1" source="wQAEA-TahNq1iuPiX8w6-95" target="wQAEA-TahNq1iuPiX8w6-16">
          <mxGeometry relative="1" as="geometry" />
        </mxCell>
        <mxCell id="wQAEA-TahNq1iuPiX8w6-95" value="created_at" style="ellipse;whiteSpace=wrap;html=1;align=center;fillColor=#b1ddf0;strokeColor=#10739e;fontFamily=Arial;" parent="1" vertex="1">
          <mxGeometry x="288" y="810" width="80" height="30" as="geometry" />
        </mxCell>
        <mxCell id="fFsPRnBUjpu_zI0DjNua-89" style="edgeStyle=orthogonalEdgeStyle;rounded=0;orthogonalLoop=1;jettySize=auto;html=1;exitX=0.5;exitY=0;exitDx=0;exitDy=0;entryX=0.5;entryY=1;entryDx=0;entryDy=0;endArrow=none;endFill=0;" edge="1" parent="1" source="wQAEA-TahNq1iuPiX8w6-106" target="wQAEA-TahNq1iuPiX8w6-22">
          <mxGeometry relative="1" as="geometry" />
        </mxCell>
        <mxCell id="wQAEA-TahNq1iuPiX8w6-106" value="created_at" style="ellipse;whiteSpace=wrap;html=1;align=center;fillColor=#b1ddf0;strokeColor=#10739e;fontFamily=Arial;" parent="1" vertex="1">
          <mxGeometry x="630" y="1050" width="80" height="30" as="geometry" />
        </mxCell>
        <mxCell id="wQAEA-TahNq1iuPiX8w6-110" value="like" style="whiteSpace=wrap;html=1;align=center;fillColor=#1ba1e2;strokeColor=#006EAF;fontFamily=Arial;fontColor=#ffffff;" parent="1" vertex="1">
          <mxGeometry x="720" y="525" width="100" height="40" as="geometry" />
        </mxCell>
        <mxCell id="fFsPRnBUjpu_zI0DjNua-60" style="edgeStyle=orthogonalEdgeStyle;rounded=0;orthogonalLoop=1;jettySize=auto;html=1;exitX=0.5;exitY=1;exitDx=0;exitDy=0;entryX=0.5;entryY=0;entryDx=0;entryDy=0;endArrow=none;endFill=0;" edge="1" parent="1" source="wQAEA-TahNq1iuPiX8w6-116" target="wQAEA-TahNq1iuPiX8w6-110">
          <mxGeometry relative="1" as="geometry" />
        </mxCell>
        <mxCell id="wQAEA-TahNq1iuPiX8w6-116" value="like_id" style="ellipse;whiteSpace=wrap;html=1;align=center;fillColor=#b1ddf0;strokeColor=#10739e;fontFamily=Arial;" parent="1" vertex="1">
          <mxGeometry x="730" y="335" width="80" height="30" as="geometry" />
        </mxCell>
        <mxCell id="fFsPRnBUjpu_zI0DjNua-61" style="edgeStyle=orthogonalEdgeStyle;rounded=0;orthogonalLoop=1;jettySize=auto;html=1;exitX=0.5;exitY=1;exitDx=0;exitDy=0;entryX=0.5;entryY=0;entryDx=0;entryDy=0;endArrow=none;endFill=0;" edge="1" parent="1" source="wQAEA-TahNq1iuPiX8w6-118" target="wQAEA-TahNq1iuPiX8w6-110">
          <mxGeometry relative="1" as="geometry" />
        </mxCell>
        <mxCell id="wQAEA-TahNq1iuPiX8w6-118" value="artist_id" style="ellipse;whiteSpace=wrap;html=1;align=center;fillColor=#b1ddf0;strokeColor=#10739e;fontFamily=Arial;" parent="1" vertex="1">
          <mxGeometry x="730" y="375" width="80" height="30" as="geometry" />
        </mxCell>
        <mxCell id="fFsPRnBUjpu_zI0DjNua-62" style="edgeStyle=orthogonalEdgeStyle;rounded=0;orthogonalLoop=1;jettySize=auto;html=1;exitX=0.5;exitY=1;exitDx=0;exitDy=0;entryX=0.5;entryY=0;entryDx=0;entryDy=0;endArrow=none;endFill=0;" edge="1" parent="1" source="wQAEA-TahNq1iuPiX8w6-120" target="wQAEA-TahNq1iuPiX8w6-110">
          <mxGeometry relative="1" as="geometry" />
        </mxCell>
        <mxCell id="wQAEA-TahNq1iuPiX8w6-120" value="artwork_id" style="ellipse;whiteSpace=wrap;html=1;align=center;fillColor=#b1ddf0;strokeColor=#10739e;fontFamily=Arial;" parent="1" vertex="1">
          <mxGeometry x="730" y="415" width="80" height="30" as="geometry" />
        </mxCell>
        <mxCell id="fFsPRnBUjpu_zI0DjNua-63" style="edgeStyle=orthogonalEdgeStyle;rounded=0;orthogonalLoop=1;jettySize=auto;html=1;exitX=0.5;exitY=1;exitDx=0;exitDy=0;entryX=0.5;entryY=0;entryDx=0;entryDy=0;endArrow=none;endFill=0;" edge="1" parent="1" source="wQAEA-TahNq1iuPiX8w6-121" target="wQAEA-TahNq1iuPiX8w6-110">
          <mxGeometry relative="1" as="geometry" />
        </mxCell>
        <mxCell id="wQAEA-TahNq1iuPiX8w6-121" value="created_at" style="ellipse;whiteSpace=wrap;html=1;align=center;fillColor=#b1ddf0;strokeColor=#10739e;fontFamily=Arial;" parent="1" vertex="1">
          <mxGeometry x="730" y="455" width="80" height="30" as="geometry" />
        </mxCell>
        <mxCell id="wQAEA-TahNq1iuPiX8w6-124" value="notification" style="whiteSpace=wrap;html=1;align=center;fillColor=#1ba1e2;strokeColor=#006EAF;fontFamily=Arial;fontColor=#ffffff;" parent="1" vertex="1">
          <mxGeometry x="60" y="690" width="100" height="40" as="geometry" />
        </mxCell>
        <mxCell id="fFsPRnBUjpu_zI0DjNua-77" style="edgeStyle=orthogonalEdgeStyle;rounded=0;orthogonalLoop=1;jettySize=auto;html=1;exitX=0.5;exitY=0;exitDx=0;exitDy=0;entryX=0.5;entryY=1;entryDx=0;entryDy=0;endArrow=none;endFill=0;" edge="1" parent="1" source="wQAEA-TahNq1iuPiX8w6-134" target="wQAEA-TahNq1iuPiX8w6-124">
          <mxGeometry relative="1" as="geometry" />
        </mxCell>
        <mxCell id="wQAEA-TahNq1iuPiX8w6-134" value="created_at" style="ellipse;whiteSpace=wrap;html=1;align=center;fillColor=#b1ddf0;strokeColor=#10739e;fontFamily=Arial;" parent="1" vertex="1">
          <mxGeometry x="70" y="1015" width="80" height="30" as="geometry" />
        </mxCell>
        <mxCell id="fFsPRnBUjpu_zI0DjNua-78" style="edgeStyle=orthogonalEdgeStyle;rounded=0;orthogonalLoop=1;jettySize=auto;html=1;exitX=0.5;exitY=0;exitDx=0;exitDy=0;entryX=0.5;entryY=1;entryDx=0;entryDy=0;endArrow=none;endFill=0;" edge="1" parent="1" source="wQAEA-TahNq1iuPiX8w6-137" target="wQAEA-TahNq1iuPiX8w6-124">
          <mxGeometry relative="1" as="geometry" />
        </mxCell>
        <mxCell id="wQAEA-TahNq1iuPiX8w6-137" value="is_read" style="ellipse;whiteSpace=wrap;html=1;align=center;fillColor=#b1ddf0;strokeColor=#10739e;fontFamily=Arial;" parent="1" vertex="1">
          <mxGeometry x="70" y="975" width="80" height="30" as="geometry" />
        </mxCell>
        <mxCell id="wQAEA-TahNq1iuPiX8w6-140" value="review" style="whiteSpace=wrap;html=1;align=center;fillColor=#1ba1e2;strokeColor=#006EAF;fontFamily=Arial;fontColor=#ffffff;" parent="1" vertex="1">
          <mxGeometry x="335" y="265" width="100" height="40" as="geometry" />
        </mxCell>
        <mxCell id="fFsPRnBUjpu_zI0DjNua-11" style="edgeStyle=orthogonalEdgeStyle;rounded=0;orthogonalLoop=1;jettySize=auto;html=1;exitX=0.5;exitY=0;exitDx=0;exitDy=0;entryX=0.5;entryY=1;entryDx=0;entryDy=0;endArrow=none;endFill=0;" edge="1" parent="1" source="wQAEA-TahNq1iuPiX8w6-149" target="wQAEA-TahNq1iuPiX8w6-140">
          <mxGeometry relative="1" as="geometry" />
        </mxCell>
        <mxCell id="wQAEA-TahNq1iuPiX8w6-149" value="created_at" style="ellipse;whiteSpace=wrap;html=1;align=center;fillColor=#b1ddf0;strokeColor=#10739e;fontFamily=Arial;" parent="1" vertex="1">
          <mxGeometry x="345" y="505" width="80" height="30" as="geometry" />
        </mxCell>
        <mxCell id="fFsPRnBUjpu_zI0DjNua-9" style="edgeStyle=orthogonalEdgeStyle;rounded=0;orthogonalLoop=1;jettySize=auto;html=1;exitX=1;exitY=0.5;exitDx=0;exitDy=0;entryX=0.5;entryY=1;entryDx=0;entryDy=0;endArrow=none;endFill=0;" edge="1" parent="1" source="hFm1tnAuOlGlKa2ZxBQA-1" target="hFm1tnAuOlGlKa2ZxBQA-40">
          <mxGeometry relative="1" as="geometry" />
        </mxCell>
        <mxCell id="fFsPRnBUjpu_zI0DjNua-10" style="edgeStyle=orthogonalEdgeStyle;rounded=0;orthogonalLoop=1;jettySize=auto;html=1;exitX=1;exitY=0.5;exitDx=0;exitDy=0;entryX=0;entryY=0.5;entryDx=0;entryDy=0;endArrow=none;endFill=0;" edge="1" parent="1" source="hFm1tnAuOlGlKa2ZxBQA-1" target="hFm1tnAuOlGlKa2ZxBQA-42">
          <mxGeometry relative="1" as="geometry" />
        </mxCell>
        <mxCell id="hFm1tnAuOlGlKa2ZxBQA-1" value="admin" style="whiteSpace=wrap;html=1;align=center;fillColor=#1ba1e2;strokeColor=#006EAF;fontFamily=Arial;fontColor=#ffffff;" parent="1" vertex="1">
          <mxGeometry x="550" y="150" width="100" height="40" as="geometry" />
        </mxCell>
        <mxCell id="hFm1tnAuOlGlKa2ZxBQA-40" value="&lt;font style=&quot;font-size: 10px;&quot;&gt;acct_type = admin&lt;/font&gt;" style="ellipse;whiteSpace=wrap;html=1;align=center;fillColor=#b1ddf0;strokeColor=#10739e;fontFamily=Arial;" parent="1" vertex="1">
          <mxGeometry x="670" y="105" width="80" height="30" as="geometry" />
        </mxCell>
        <mxCell id="hFm1tnAuOlGlKa2ZxBQA-42" value="artist_id" style="ellipse;whiteSpace=wrap;html=1;align=center;fillColor=#b1ddf0;strokeColor=#10739e;fontFamily=Arial;" parent="1" vertex="1">
          <mxGeometry x="710" y="185" width="80" height="30" as="geometry" />
        </mxCell>
        <mxCell id="fFsPRnBUjpu_zI0DjNua-8" style="edgeStyle=orthogonalEdgeStyle;rounded=0;orthogonalLoop=1;jettySize=auto;html=1;exitX=0;exitY=0.5;exitDx=0;exitDy=0;entryX=0.5;entryY=0;entryDx=0;entryDy=0;endArrow=none;endFill=0;" edge="1" parent="1" source="hFm1tnAuOlGlKa2ZxBQA-44" target="wQAEA-TahNq1iuPiX8w6-80">
          <mxGeometry relative="1" as="geometry" />
        </mxCell>
        <mxCell id="hFm1tnAuOlGlKa2ZxBQA-44" value="&lt;font style=&quot;font-size: 10px;&quot;&gt;about&lt;/font&gt;" style="ellipse;whiteSpace=wrap;html=1;align=center;fillColor=#b1ddf0;strokeColor=#10739e;fontFamily=Arial;" parent="1" vertex="1">
          <mxGeometry x="470" y="30" width="80" height="30" as="geometry" />
        </mxCell>
        <mxCell id="fFsPRnBUjpu_zI0DjNua-2" style="edgeStyle=orthogonalEdgeStyle;rounded=0;orthogonalLoop=1;jettySize=auto;html=1;exitX=0.5;exitY=0;exitDx=0;exitDy=0;entryX=0.5;entryY=1;entryDx=0;entryDy=0;endArrow=ERmandOne;endFill=0;" edge="1" parent="1" source="fFsPRnBUjpu_zI0DjNua-1" target="wQAEA-TahNq1iuPiX8w6-80">
          <mxGeometry relative="1" as="geometry" />
        </mxCell>
        <mxCell id="fFsPRnBUjpu_zI0DjNua-21" style="edgeStyle=orthogonalEdgeStyle;rounded=0;orthogonalLoop=1;jettySize=auto;html=1;exitX=0.5;exitY=1;exitDx=0;exitDy=0;entryX=1;entryY=0.25;entryDx=0;entryDy=0;endArrow=ERzeroToMany;endFill=0;" edge="1" parent="1" source="fFsPRnBUjpu_zI0DjNua-1" target="wQAEA-TahNq1iuPiX8w6-10">
          <mxGeometry relative="1" as="geometry" />
        </mxCell>
        <mxCell id="fFsPRnBUjpu_zI0DjNua-1" value="have" style="shape=rhombus;perimeter=rhombusPerimeter;whiteSpace=wrap;html=1;align=center;fillColor=#b0e3e6;strokeColor=#0e8088;fontFamily=Arial;" vertex="1" parent="1">
          <mxGeometry x="270" y="145" width="90" height="50" as="geometry" />
        </mxCell>
        <mxCell id="fFsPRnBUjpu_zI0DjNua-6" style="edgeStyle=orthogonalEdgeStyle;rounded=0;orthogonalLoop=1;jettySize=auto;html=1;exitX=0.5;exitY=1;exitDx=0;exitDy=0;entryX=0.5;entryY=0;entryDx=0;entryDy=0;endArrow=ERzeroToMany;endFill=0;" edge="1" parent="1" source="fFsPRnBUjpu_zI0DjNua-5" target="wQAEA-TahNq1iuPiX8w6-140">
          <mxGeometry relative="1" as="geometry" />
        </mxCell>
        <mxCell id="fFsPRnBUjpu_zI0DjNua-7" style="edgeStyle=orthogonalEdgeStyle;rounded=0;orthogonalLoop=1;jettySize=auto;html=1;exitX=0.5;exitY=0;exitDx=0;exitDy=0;entryX=0.75;entryY=1;entryDx=0;entryDy=0;endArrow=ERmandOne;endFill=0;" edge="1" parent="1" source="fFsPRnBUjpu_zI0DjNua-5" target="wQAEA-TahNq1iuPiX8w6-80">
          <mxGeometry relative="1" as="geometry" />
        </mxCell>
        <mxCell id="fFsPRnBUjpu_zI0DjNua-5" value="have" style="shape=rhombus;perimeter=rhombusPerimeter;whiteSpace=wrap;html=1;align=center;fillColor=#b0e3e6;strokeColor=#0e8088;fontFamily=Arial;" vertex="1" parent="1">
          <mxGeometry x="340" y="190" width="90" height="50" as="geometry" />
        </mxCell>
        <mxCell id="fFsPRnBUjpu_zI0DjNua-14" style="edgeStyle=orthogonalEdgeStyle;rounded=0;orthogonalLoop=1;jettySize=auto;html=1;exitX=0.5;exitY=0;exitDx=0;exitDy=0;entryX=0.5;entryY=1;entryDx=0;entryDy=0;endArrow=none;endFill=0;" edge="1" parent="1" source="fFsPRnBUjpu_zI0DjNua-12" target="wQAEA-TahNq1iuPiX8w6-140">
          <mxGeometry relative="1" as="geometry" />
        </mxCell>
        <mxCell id="fFsPRnBUjpu_zI0DjNua-12" value="comment" style="ellipse;whiteSpace=wrap;html=1;align=center;fillColor=#b1ddf0;strokeColor=#10739e;fontFamily=Arial;" vertex="1" parent="1">
          <mxGeometry x="345" y="465" width="80" height="30" as="geometry" />
        </mxCell>
        <mxCell id="fFsPRnBUjpu_zI0DjNua-16" style="edgeStyle=orthogonalEdgeStyle;rounded=0;orthogonalLoop=1;jettySize=auto;html=1;exitX=0.5;exitY=0;exitDx=0;exitDy=0;entryX=0.5;entryY=1;entryDx=0;entryDy=0;endArrow=none;endFill=0;" edge="1" parent="1" source="fFsPRnBUjpu_zI0DjNua-15" target="wQAEA-TahNq1iuPiX8w6-140">
          <mxGeometry relative="1" as="geometry" />
        </mxCell>
        <mxCell id="fFsPRnBUjpu_zI0DjNua-15" value="artwork_id" style="ellipse;whiteSpace=wrap;html=1;align=center;fillColor=#b1ddf0;strokeColor=#10739e;fontFamily=Arial;" vertex="1" parent="1">
          <mxGeometry x="345" y="425" width="80" height="30" as="geometry" />
        </mxCell>
        <mxCell id="fFsPRnBUjpu_zI0DjNua-18" style="edgeStyle=orthogonalEdgeStyle;rounded=0;orthogonalLoop=1;jettySize=auto;html=1;exitX=0.5;exitY=0;exitDx=0;exitDy=0;entryX=0.5;entryY=1;entryDx=0;entryDy=0;endArrow=none;endFill=0;" edge="1" parent="1" source="fFsPRnBUjpu_zI0DjNua-17" target="wQAEA-TahNq1iuPiX8w6-140">
          <mxGeometry relative="1" as="geometry" />
        </mxCell>
        <mxCell id="fFsPRnBUjpu_zI0DjNua-17" value="artist_id" style="ellipse;whiteSpace=wrap;html=1;align=center;fillColor=#b1ddf0;strokeColor=#10739e;fontFamily=Arial;" vertex="1" parent="1">
          <mxGeometry x="345" y="385" width="80" height="30" as="geometry" />
        </mxCell>
        <mxCell id="fFsPRnBUjpu_zI0DjNua-20" style="edgeStyle=orthogonalEdgeStyle;rounded=0;orthogonalLoop=1;jettySize=auto;html=1;exitX=0.5;exitY=0;exitDx=0;exitDy=0;entryX=0.5;entryY=1;entryDx=0;entryDy=0;endArrow=none;endFill=0;" edge="1" parent="1" source="fFsPRnBUjpu_zI0DjNua-19" target="wQAEA-TahNq1iuPiX8w6-140">
          <mxGeometry relative="1" as="geometry" />
        </mxCell>
        <mxCell id="fFsPRnBUjpu_zI0DjNua-19" value="comment_id" style="ellipse;whiteSpace=wrap;html=1;align=center;fillColor=#b1ddf0;strokeColor=#10739e;fontFamily=Arial;" vertex="1" parent="1">
          <mxGeometry x="345" y="345" width="80" height="30" as="geometry" />
        </mxCell>
        <mxCell id="fFsPRnBUjpu_zI0DjNua-42" style="edgeStyle=orthogonalEdgeStyle;rounded=0;orthogonalLoop=1;jettySize=auto;html=1;exitX=0.5;exitY=1;exitDx=0;exitDy=0;entryX=0.5;entryY=0;entryDx=0;entryDy=0;endArrow=none;endFill=0;" edge="1" parent="1" source="fFsPRnBUjpu_zI0DjNua-41" target="wQAEA-TahNq1iuPiX8w6-12">
          <mxGeometry relative="1" as="geometry" />
        </mxCell>
        <mxCell id="fFsPRnBUjpu_zI0DjNua-41" value="title" style="ellipse;whiteSpace=wrap;html=1;align=center;fillColor=#b1ddf0;strokeColor=#10739e;fontFamily=Arial;" vertex="1" parent="1">
          <mxGeometry x="540" y="370" width="80" height="30" as="geometry" />
        </mxCell>
        <mxCell id="fFsPRnBUjpu_zI0DjNua-44" style="edgeStyle=orthogonalEdgeStyle;rounded=0;orthogonalLoop=1;jettySize=auto;html=1;exitX=0.5;exitY=1;exitDx=0;exitDy=0;entryX=0.5;entryY=0;entryDx=0;entryDy=0;endArrow=none;endFill=0;" edge="1" parent="1" source="fFsPRnBUjpu_zI0DjNua-43" target="wQAEA-TahNq1iuPiX8w6-12">
          <mxGeometry relative="1" as="geometry" />
        </mxCell>
        <mxCell id="fFsPRnBUjpu_zI0DjNua-43" value="description" style="ellipse;whiteSpace=wrap;html=1;align=center;fillColor=#b1ddf0;strokeColor=#10739e;fontFamily=Arial;" vertex="1" parent="1">
          <mxGeometry x="540" y="410" width="80" height="30" as="geometry" />
        </mxCell>
        <mxCell id="fFsPRnBUjpu_zI0DjNua-46" style="edgeStyle=orthogonalEdgeStyle;rounded=0;orthogonalLoop=1;jettySize=auto;html=1;exitX=0.5;exitY=1;exitDx=0;exitDy=0;entryX=0.5;entryY=0;entryDx=0;entryDy=0;endArrow=none;endFill=0;" edge="1" parent="1" source="fFsPRnBUjpu_zI0DjNua-45" target="wQAEA-TahNq1iuPiX8w6-12">
          <mxGeometry relative="1" as="geometry" />
        </mxCell>
        <mxCell id="fFsPRnBUjpu_zI0DjNua-45" value="style" style="ellipse;whiteSpace=wrap;html=1;align=center;fillColor=#b1ddf0;strokeColor=#10739e;fontFamily=Arial;" vertex="1" parent="1">
          <mxGeometry x="540" y="450" width="80" height="30" as="geometry" />
        </mxCell>
        <mxCell id="fFsPRnBUjpu_zI0DjNua-49" style="edgeStyle=orthogonalEdgeStyle;rounded=0;orthogonalLoop=1;jettySize=auto;html=1;exitX=0.5;exitY=1;exitDx=0;exitDy=0;entryX=0.5;entryY=0;entryDx=0;entryDy=0;endArrow=none;endFill=0;" edge="1" parent="1" source="fFsPRnBUjpu_zI0DjNua-47" target="wQAEA-TahNq1iuPiX8w6-12">
          <mxGeometry relative="1" as="geometry" />
        </mxCell>
        <mxCell id="fFsPRnBUjpu_zI0DjNua-47" value="image" style="ellipse;whiteSpace=wrap;html=1;align=center;fillColor=#b1ddf0;strokeColor=#10739e;fontFamily=Arial;" vertex="1" parent="1">
          <mxGeometry x="540" y="490" width="80" height="30" as="geometry" />
        </mxCell>
        <mxCell id="fFsPRnBUjpu_zI0DjNua-51" style="edgeStyle=orthogonalEdgeStyle;rounded=0;orthogonalLoop=1;jettySize=auto;html=1;exitX=0.5;exitY=1;exitDx=0;exitDy=0;entryX=0.5;entryY=0;entryDx=0;entryDy=0;endArrow=none;endFill=0;" edge="1" parent="1" source="fFsPRnBUjpu_zI0DjNua-50" target="wQAEA-TahNq1iuPiX8w6-12">
          <mxGeometry relative="1" as="geometry" />
        </mxCell>
        <mxCell id="fFsPRnBUjpu_zI0DjNua-50" value="created_at" style="ellipse;whiteSpace=wrap;html=1;align=center;fillColor=#b1ddf0;strokeColor=#10739e;fontFamily=Arial;" vertex="1" parent="1">
          <mxGeometry x="540" y="530" width="80" height="30" as="geometry" />
        </mxCell>
        <mxCell id="fFsPRnBUjpu_zI0DjNua-58" style="edgeStyle=orthogonalEdgeStyle;rounded=0;orthogonalLoop=1;jettySize=auto;html=1;exitX=0;exitY=0.5;exitDx=0;exitDy=0;entryX=1;entryY=0.25;entryDx=0;entryDy=0;endArrow=ERmandOne;endFill=0;" edge="1" parent="1" source="fFsPRnBUjpu_zI0DjNua-56" target="wQAEA-TahNq1iuPiX8w6-12">
          <mxGeometry relative="1" as="geometry" />
        </mxCell>
        <mxCell id="fFsPRnBUjpu_zI0DjNua-59" style="edgeStyle=orthogonalEdgeStyle;rounded=0;orthogonalLoop=1;jettySize=auto;html=1;exitX=0.5;exitY=0;exitDx=0;exitDy=0;entryX=0.5;entryY=1;entryDx=0;entryDy=0;endArrow=ERzeroToMany;endFill=0;" edge="1" parent="1" source="fFsPRnBUjpu_zI0DjNua-56" target="wQAEA-TahNq1iuPiX8w6-110">
          <mxGeometry relative="1" as="geometry" />
        </mxCell>
        <mxCell id="fFsPRnBUjpu_zI0DjNua-56" value="have" style="shape=rhombus;perimeter=rhombusPerimeter;whiteSpace=wrap;html=1;align=center;fillColor=#b0e3e6;strokeColor=#0e8088;fontFamily=Arial;" vertex="1" parent="1">
          <mxGeometry x="725" y="620" width="90" height="50" as="geometry" />
        </mxCell>
        <mxCell id="fFsPRnBUjpu_zI0DjNua-69" style="edgeStyle=orthogonalEdgeStyle;rounded=0;orthogonalLoop=1;jettySize=auto;html=1;exitX=0.5;exitY=0;exitDx=0;exitDy=0;entryX=0.75;entryY=1;entryDx=0;entryDy=0;endArrow=ERmandOne;endFill=0;" edge="1" parent="1" source="fFsPRnBUjpu_zI0DjNua-67" target="wQAEA-TahNq1iuPiX8w6-10">
          <mxGeometry relative="1" as="geometry" />
        </mxCell>
        <mxCell id="fFsPRnBUjpu_zI0DjNua-70" style="edgeStyle=orthogonalEdgeStyle;rounded=0;orthogonalLoop=1;jettySize=auto;html=1;exitX=0.5;exitY=1;exitDx=0;exitDy=0;entryX=0;entryY=0.5;entryDx=0;entryDy=0;endArrow=ERzeroToMany;endFill=0;" edge="1" parent="1" source="fFsPRnBUjpu_zI0DjNua-67" target="wQAEA-TahNq1iuPiX8w6-16">
          <mxGeometry relative="1" as="geometry" />
        </mxCell>
        <mxCell id="fFsPRnBUjpu_zI0DjNua-67" value="have" style="shape=rhombus;perimeter=rhombusPerimeter;whiteSpace=wrap;html=1;align=center;fillColor=#b0e3e6;strokeColor=#0e8088;fontFamily=Arial;" vertex="1" parent="1">
          <mxGeometry x="160" y="630" width="90" height="50" as="geometry" />
        </mxCell>
        <mxCell id="fFsPRnBUjpu_zI0DjNua-74" style="edgeStyle=orthogonalEdgeStyle;rounded=0;orthogonalLoop=1;jettySize=auto;html=1;exitX=0.5;exitY=0;exitDx=0;exitDy=0;entryX=0.5;entryY=1;entryDx=0;entryDy=0;endArrow=none;endFill=0;" edge="1" parent="1" source="fFsPRnBUjpu_zI0DjNua-73" target="wQAEA-TahNq1iuPiX8w6-16">
          <mxGeometry relative="1" as="geometry" />
        </mxCell>
        <mxCell id="fFsPRnBUjpu_zI0DjNua-73" value="artist_id" style="ellipse;whiteSpace=wrap;html=1;align=center;fillColor=#b1ddf0;strokeColor=#10739e;fontFamily=Arial;" vertex="1" parent="1">
          <mxGeometry x="288" y="770" width="80" height="30" as="geometry" />
        </mxCell>
        <mxCell id="fFsPRnBUjpu_zI0DjNua-80" style="edgeStyle=orthogonalEdgeStyle;rounded=0;orthogonalLoop=1;jettySize=auto;html=1;exitX=0.5;exitY=0;exitDx=0;exitDy=0;entryX=0.5;entryY=1;entryDx=0;entryDy=0;endArrow=none;endFill=0;" edge="1" parent="1" source="fFsPRnBUjpu_zI0DjNua-79" target="wQAEA-TahNq1iuPiX8w6-124">
          <mxGeometry relative="1" as="geometry" />
        </mxCell>
        <mxCell id="fFsPRnBUjpu_zI0DjNua-79" value="notif_data" style="ellipse;whiteSpace=wrap;html=1;align=center;fillColor=#b1ddf0;strokeColor=#10739e;fontFamily=Arial;" vertex="1" parent="1">
          <mxGeometry x="70" y="935" width="80" height="30" as="geometry" />
        </mxCell>
        <mxCell id="fFsPRnBUjpu_zI0DjNua-82" style="edgeStyle=orthogonalEdgeStyle;rounded=0;orthogonalLoop=1;jettySize=auto;html=1;exitX=0.5;exitY=0;exitDx=0;exitDy=0;entryX=0.5;entryY=1;entryDx=0;entryDy=0;endArrow=none;endFill=0;" edge="1" parent="1" source="fFsPRnBUjpu_zI0DjNua-81" target="wQAEA-TahNq1iuPiX8w6-124">
          <mxGeometry relative="1" as="geometry" />
        </mxCell>
        <mxCell id="fFsPRnBUjpu_zI0DjNua-81" value="notif_type" style="ellipse;whiteSpace=wrap;html=1;align=center;fillColor=#b1ddf0;strokeColor=#10739e;fontFamily=Arial;" vertex="1" parent="1">
          <mxGeometry x="70" y="895" width="80" height="30" as="geometry" />
        </mxCell>
        <mxCell id="fFsPRnBUjpu_zI0DjNua-84" style="edgeStyle=orthogonalEdgeStyle;rounded=0;orthogonalLoop=1;jettySize=auto;html=1;exitX=0.5;exitY=0;exitDx=0;exitDy=0;entryX=0.5;entryY=1;entryDx=0;entryDy=0;endArrow=none;endFill=0;" edge="1" parent="1" source="fFsPRnBUjpu_zI0DjNua-83" target="wQAEA-TahNq1iuPiX8w6-124">
          <mxGeometry relative="1" as="geometry" />
        </mxCell>
        <mxCell id="fFsPRnBUjpu_zI0DjNua-83" value="artwork_id" style="ellipse;whiteSpace=wrap;html=1;align=center;fillColor=#b1ddf0;strokeColor=#10739e;fontFamily=Arial;" vertex="1" parent="1">
          <mxGeometry x="70" y="855" width="80" height="30" as="geometry" />
        </mxCell>
        <mxCell id="fFsPRnBUjpu_zI0DjNua-86" style="edgeStyle=orthogonalEdgeStyle;rounded=0;orthogonalLoop=1;jettySize=auto;html=1;exitX=0.5;exitY=0;exitDx=0;exitDy=0;entryX=0.5;entryY=1;entryDx=0;entryDy=0;endArrow=none;endFill=0;" edge="1" parent="1" source="fFsPRnBUjpu_zI0DjNua-85" target="wQAEA-TahNq1iuPiX8w6-124">
          <mxGeometry relative="1" as="geometry" />
        </mxCell>
        <mxCell id="fFsPRnBUjpu_zI0DjNua-85" value="artist_id" style="ellipse;whiteSpace=wrap;html=1;align=center;fillColor=#b1ddf0;strokeColor=#10739e;fontFamily=Arial;" vertex="1" parent="1">
          <mxGeometry x="70" y="815" width="80" height="30" as="geometry" />
        </mxCell>
        <mxCell id="fFsPRnBUjpu_zI0DjNua-88" style="edgeStyle=orthogonalEdgeStyle;rounded=0;orthogonalLoop=1;jettySize=auto;html=1;exitX=0.5;exitY=0;exitDx=0;exitDy=0;entryX=0.5;entryY=1;entryDx=0;entryDy=0;endArrow=none;endFill=0;" edge="1" parent="1" source="fFsPRnBUjpu_zI0DjNua-87" target="wQAEA-TahNq1iuPiX8w6-124">
          <mxGeometry relative="1" as="geometry" />
        </mxCell>
        <mxCell id="fFsPRnBUjpu_zI0DjNua-87" value="notif_id" style="ellipse;whiteSpace=wrap;html=1;align=center;fillColor=#b1ddf0;strokeColor=#10739e;fontFamily=Arial;" vertex="1" parent="1">
          <mxGeometry x="70" y="775" width="80" height="30" as="geometry" />
        </mxCell>
        <mxCell id="fFsPRnBUjpu_zI0DjNua-91" style="edgeStyle=orthogonalEdgeStyle;rounded=0;orthogonalLoop=1;jettySize=auto;html=1;exitX=0.5;exitY=0;exitDx=0;exitDy=0;entryX=0.5;entryY=1;entryDx=0;entryDy=0;endArrow=none;endFill=0;" edge="1" parent="1" source="fFsPRnBUjpu_zI0DjNua-90" target="wQAEA-TahNq1iuPiX8w6-22">
          <mxGeometry relative="1" as="geometry" />
        </mxCell>
        <mxCell id="fFsPRnBUjpu_zI0DjNua-90" value="comment" style="ellipse;whiteSpace=wrap;html=1;align=center;fillColor=#b1ddf0;strokeColor=#10739e;fontFamily=Arial;" vertex="1" parent="1">
          <mxGeometry x="630" y="1010" width="80" height="30" as="geometry" />
        </mxCell>
        <mxCell id="fFsPRnBUjpu_zI0DjNua-93" style="edgeStyle=orthogonalEdgeStyle;rounded=0;orthogonalLoop=1;jettySize=auto;html=1;exitX=0.5;exitY=0;exitDx=0;exitDy=0;entryX=0.5;entryY=1;entryDx=0;entryDy=0;endArrow=none;endFill=0;" edge="1" parent="1" source="fFsPRnBUjpu_zI0DjNua-92" target="wQAEA-TahNq1iuPiX8w6-22">
          <mxGeometry relative="1" as="geometry" />
        </mxCell>
        <mxCell id="fFsPRnBUjpu_zI0DjNua-92" value="artwork_id" style="ellipse;whiteSpace=wrap;html=1;align=center;fillColor=#b1ddf0;strokeColor=#10739e;fontFamily=Arial;" vertex="1" parent="1">
          <mxGeometry x="630" y="970" width="80" height="30" as="geometry" />
        </mxCell>
        <mxCell id="fFsPRnBUjpu_zI0DjNua-95" style="edgeStyle=orthogonalEdgeStyle;rounded=0;orthogonalLoop=1;jettySize=auto;html=1;exitX=0.5;exitY=0;exitDx=0;exitDy=0;entryX=0.5;entryY=1;entryDx=0;entryDy=0;endArrow=none;endFill=0;" edge="1" parent="1" source="fFsPRnBUjpu_zI0DjNua-94" target="wQAEA-TahNq1iuPiX8w6-22">
          <mxGeometry relative="1" as="geometry" />
        </mxCell>
        <mxCell id="fFsPRnBUjpu_zI0DjNua-94" value="artist_id" style="ellipse;whiteSpace=wrap;html=1;align=center;fillColor=#b1ddf0;strokeColor=#10739e;fontFamily=Arial;" vertex="1" parent="1">
          <mxGeometry x="630" y="930" width="80" height="30" as="geometry" />
        </mxCell>
        <mxCell id="fFsPRnBUjpu_zI0DjNua-97" style="edgeStyle=orthogonalEdgeStyle;rounded=0;orthogonalLoop=1;jettySize=auto;html=1;exitX=0.5;exitY=0;exitDx=0;exitDy=0;entryX=0.5;entryY=1;entryDx=0;entryDy=0;endArrow=none;endFill=0;" edge="1" parent="1" source="fFsPRnBUjpu_zI0DjNua-96" target="wQAEA-TahNq1iuPiX8w6-22">
          <mxGeometry relative="1" as="geometry" />
        </mxCell>
        <mxCell id="fFsPRnBUjpu_zI0DjNua-96" value="comment_id" style="ellipse;whiteSpace=wrap;html=1;align=center;fillColor=#b1ddf0;strokeColor=#10739e;fontFamily=Arial;" vertex="1" parent="1">
          <mxGeometry x="630" y="890" width="80" height="30" as="geometry" />
        </mxCell>
      </root>
    </mxGraphModel>
  </diagram>
</mxfile>
